<svg aria-hidden="true" style="position: absolute; width: 0; height: 0; overflow: hidden;" version="1.1" xmlns="http://www.w3.org/2000/svg" xmlns:xlink="http://www.w3.org/1999/xlink">
<defs>
<symbol id="icon-close" viewBox="0 0 32 32">
<path d="M18.088 15.585l12.282-12.195c0.243-0.281 0.369-0.643 0.355-1.014s-0.169-0.721-0.433-0.983c-0.264-0.262-0.617-0.415-0.99-0.43s-0.737 0.112-1.021 0.353l-12.281 12.195-12.281-12.209c-0.279-0.277-0.657-0.433-1.052-0.433s-0.773 0.156-1.052 0.433c-0.279 0.277-0.436 0.653-0.436 1.044s0.157 0.767 0.436 1.044l12.296 12.195-12.296 12.195c-0.155 0.132-0.281 0.294-0.37 0.477s-0.139 0.381-0.147 0.584 0.026 0.405 0.101 0.593c0.074 0.189 0.187 0.36 0.332 0.504s0.317 0.255 0.507 0.329c0.19 0.074 0.394 0.108 0.598 0.1s0.404-0.057 0.588-0.146 0.347-0.213 0.48-0.367l12.296-12.195 12.281 12.195c0.283 0.241 0.648 0.367 1.021 0.353s0.727-0.168 0.99-0.43c0.264-0.262 0.418-0.613 0.433-0.983s-0.112-0.732-0.355-1.014l-12.282-12.195z"></path>
</symbol>
<symbol id="icon-cross" viewBox="0 0 32 32">
<path d="M17.253 16l7.369-7.369c0.146-0.17 0.222-0.389 0.213-0.612s-0.101-0.436-0.26-0.594c-0.158-0.158-0.371-0.251-0.594-0.26s-0.443 0.067-0.613 0.213l-7.369 7.369-7.369-7.378c-0.167-0.167-0.394-0.261-0.631-0.261s-0.464 0.094-0.631 0.261c-0.167 0.167-0.261 0.394-0.261 0.631s0.094 0.464 0.261 0.631l7.378 7.369-7.378 7.369c-0.093 0.080-0.169 0.178-0.222 0.288s-0.083 0.23-0.088 0.353c-0.005 0.122 0.016 0.245 0.061 0.359s0.112 0.218 0.199 0.304c0.087 0.087 0.19 0.154 0.304 0.199s0.236 0.065 0.359 0.061c0.122-0.005 0.243-0.035 0.353-0.088s0.208-0.129 0.288-0.222l7.378-7.369 7.369 7.369c0.17 0.146 0.389 0.222 0.613 0.213s0.436-0.101 0.594-0.26c0.158-0.158 0.251-0.371 0.26-0.594s-0.067-0.442-0.213-0.612l-7.369-7.369z"></path>
</symbol>
</defs>
</svg>
